<svg xmlns="http://www.w3.org/2000/svg" viewBox="0 0 128 96" role="img" aria-label="White goose folk-art emblem">
  <defs>
    <filter id="softShadow" x="-20%" y="-20%" width="140%" height="140%">
      <feDropShadow dx="0" dy="2" stdDeviation="2" flood-color="#000000" flood-opacity="0.35"/>
    </filter>
  </defs>
  <rect x="8" y="8" width="112" height="80" rx="18" fill="none" stroke="#f2c86b" stroke-width="4" stroke-dasharray="9 7" opacity="0.9"/>
  <circle cx="92" cy="28" r="12" fill="#d85b3e" opacity="0.95"/>
  <g filter="url(#softShadow)" stroke="#14100e" stroke-width="4" stroke-linecap="round" stroke-linejoin="round">
    <path d="M30 58c8-19 27-27 49-18 18 7 25 22 16 32-7 8-24 9-41 4-15-4-25-10-24-18Z" fill="#fff7e8"/>
    <path d="M69 42c7-15 22-23 31-16 7 6 3 18-9 25" fill="none"/>
    <path d="M95 27c8-6 17-5 22 2-7 2-13 5-18 10" fill="#fff7e8"/>
    <path d="M33 57c-7-10-17-13-24-7 7 4 13 10 18 19" fill="#fff7e8"/>
    <path d="M50 76l-7 12M67 78l1 12" fill="none"/>
  </g>
  <g fill="none" stroke="#d85b3e" stroke-width="3" stroke-linecap="round" opacity="0.9">
    <path d="M44 55c10-7 22-8 34-3"/>
    <path d="M43 64c11 5 25 7 39 4"/>
    <path d="M22 22h14M92 78h16"/>
  </g>
  <circle cx="101" cy="31" r="2.2" fill="#14100e"/>
  <path d="M111 31l9 2-8 4Z" fill="#f2a33a" stroke="#14100e" stroke-width="2" stroke-linejoin="round"/>
</svg>
